<?xml version="1.0" standalone="no"?>
<!DOCTYPE svg PUBLIC "-//W3C//DTD SVG 20010904//EN"
 "http://www.w3.org/TR/2001/REC-SVG-20010904/DTD/svg10.dtd">
<svg version="1.0" xmlns="http://www.w3.org/2000/svg"
 width="90.000000pt" height="90.000000pt" viewBox="0 0 90.000000 90.000000"
 preserveAspectRatio="xMidYMid meet">
<metadata>
Created by potrace 1.14, written by Peter Selinger 2001-2017
</metadata>
<g transform="translate(0.000000,90.000000) scale(0.100000,-0.100000)"
fill="#000000" stroke="none">
<path d="M208 785 c-4 -17 -9 -41 -13 -55 -4 -14 -7 -31 -7 -37 -1 -7 -5 -13
-10 -13 -4 0 -8 -10 -8 -23 0 -13 -4 -27 -9 -33 -6 -5 -13 -31 -16 -59 -5 -43
-16 -84 -42 -155 -3 -8 -5 -34 -5 -57 0 -25 -4 -43 -11 -43 -8 0 -7 -4 1 -12
9 -9 8 -16 -5 -31 -11 -11 -18 -36 -18 -65 -1 -26 -5 -56 -11 -67 -5 -11 -9
-27 -8 -35 1 -8 2 -23 3 -32 1 -17 26 -18 385 -18 434 0 396 -8 396 87 0 47
-2 54 -14 44 -19 -16 -30 2 -33 49 -2 51 -10 92 -20 99 -4 3 -8 21 -9 39 -2
45 -24 114 -42 129 -10 8 -13 22 -9 43 4 19 2 30 -5 30 -6 0 -8 3 -5 7 4 3 2
12 -4 20 -6 7 -9 22 -6 33 3 11 1 20 -4 20 -5 0 -9 -11 -9 -24 0 -13 -7 -36
-15 -52 -11 -22 -12 -31 -2 -42 9 -11 7 -18 -11 -32 -12 -10 -22 -26 -22 -35
0 -9 -5 -25 -11 -36 -5 -11 -11 -38 -11 -60 0 -21 -4 -42 -9 -45 -5 -3 -9 -14
-9 -25 0 -11 -4 -18 -9 -15 -5 3 -7 27 -6 53 1 27 -2 57 -8 68 -6 11 -12 40
-13 64 -2 25 -8 49 -14 55 -5 5 -10 18 -10 28 0 9 -10 26 -22 38 -21 19 -21
21 -4 33 18 13 18 15 1 40 -9 15 -20 27 -24 27 -4 0 -5 19 -3 43 5 51 -6 46
-12 -6 -3 -20 -13 -48 -22 -62 -11 -17 -14 -29 -7 -33 12 -9 26 -45 14 -38
-20 13 -61 -64 -64 -119 -1 -22 -5 -42 -9 -46 -14 -9 -25 -96 -16 -113 6 -11
4 -21 -6 -32 -9 -8 -16 -20 -16 -25 0 -5 -5 -9 -10 -9 -7 0 -7 6 -2 17 5 10 8
27 6 38 -2 11 -6 43 -9 70 -9 82 -15 119 -22 140 -4 11 -8 29 -9 40 -5 46 -12
72 -29 110 -10 22 -17 50 -16 63 1 12 -3 22 -9 22 -7 0 -10 6 -7 13 2 6 1 21
-3 32 -6 17 -8 16 -12 -10z"/>
</g>
</svg>
